<svg width="119" height="81" viewBox="0 0 119 81" fill="none" xmlns="http://www.w3.org/2000/svg">
<path d="M117.998 13.4021C117.4 13.4021 116.935 13.8669 116.935 14.4645C116.935 14.5973 116.935 14.6638 117.002 14.7966L109.896 17.5191C109.83 17.5191 109.83 17.5855 109.83 17.6519L109.896 17.7183L117.002 14.9294C117.201 15.2614 117.533 15.527 117.931 15.527C118.529 15.527 118.994 15.0622 118.994 14.4645C119.06 13.8669 118.595 13.4021 117.998 13.4021Z" fill="#F4601E"/>
<path d="M94.2255 12.3398L90.7061 25.9523C90.7061 26.0187 90.7061 26.0187 90.7725 26.0851C90.8389 26.0851 90.8389 26.0851 90.8389 26.0187L94.3583 12.3398C94.4247 12.3398 94.4247 12.3398 94.4247 12.3398C94.8231 12.3398 95.1551 12.0078 95.1551 11.6093C95.1551 11.2109 94.8231 10.8789 94.4247 10.8789C94.0262 10.8789 93.6942 11.2109 93.6942 11.6093C93.7606 12.0078 93.9598 12.2734 94.2255 12.3398Z" fill="#F4601E"/>
<path d="M85.0619 7.82439C85.1283 7.82439 85.1283 7.82439 85.1283 7.82439L89.9093 25.9523C89.9093 26.0187 89.9757 26.0187 89.9757 26.0187C90.0421 26.0187 90.0421 25.9523 90.0421 25.8859L85.2611 7.75798C85.5267 7.62518 85.7259 7.35957 85.7259 7.09396C85.7259 6.69554 85.3939 6.36353 84.9955 6.36353C84.5971 6.36353 84.3315 6.69554 84.3315 7.16036C84.3315 7.62518 84.6635 7.82439 85.0619 7.82439Z" fill="#F4601E"/>
<path d="M76.6287 18.3823C76.2303 18.3823 75.8983 18.7143 75.8983 19.1128C75.8983 19.5112 76.2303 19.8432 76.6287 19.8432C76.8944 19.8432 77.0936 19.7104 77.2264 19.5112L80.5465 21.3704C80.5465 21.3704 80.5465 21.3704 80.6129 21.3704C80.6129 21.3704 80.6793 21.3704 80.6793 21.304C80.6793 21.2376 80.6793 21.2376 80.6793 21.1712L77.4256 19.312C77.492 19.2456 77.492 19.1128 77.492 19.0464C77.3592 18.7143 77.0272 18.3823 76.6287 18.3823Z" fill="#F4601E"/>
<path d="M75.0351 23.2961C74.6366 23.2961 74.3046 23.6282 74.3046 24.0266C74.3046 24.425 74.6366 24.757 75.0351 24.757C75.3671 24.757 75.6327 24.5578 75.6991 24.2922L88.7804 27.1475C88.8468 27.1475 88.8468 27.1475 88.8468 27.0811C88.8468 27.0147 88.8468 27.0147 88.7804 27.0147L75.6991 24.1594V24.093C75.7655 23.6282 75.4335 23.2961 75.0351 23.2961Z" fill="#F4601E"/>
<path d="M77.824 39.9633C78.2274 39.9633 78.5544 39.6363 78.5544 39.2329C78.5544 38.8295 78.2274 38.5024 77.824 38.5024C77.4206 38.5024 77.0936 38.8295 77.0936 39.2329C77.0936 39.6363 77.4206 39.9633 77.824 39.9633Z" fill="#F4601E"/>
<path d="M82.8042 37.5064L89.3781 28.874C89.3781 28.8076 89.3781 28.8076 89.3781 28.7412C89.3117 28.7412 89.3117 28.7412 89.2453 28.7412L82.6714 37.3736C82.5386 37.3072 82.4722 37.2408 82.3394 37.2408C81.941 37.2408 81.6089 37.5728 81.6089 37.9712C81.6089 38.3696 81.941 38.7016 82.3394 38.7016C82.7378 38.7016 83.0698 38.3696 83.0698 37.9712C83.0034 37.772 82.937 37.6392 82.8042 37.5064Z" fill="#F4601E"/>
<path d="M90.7725 42.885L90.5069 29.0068C90.5069 28.9404 90.4405 28.9404 90.4405 28.9404C90.3741 28.9404 90.3741 29.0068 90.3741 29.0068L90.6397 42.885C90.3077 42.9514 90.0421 43.217 90.0421 43.6154C90.0421 44.0139 90.3741 44.3459 90.7725 44.3459C91.1709 44.3459 91.5029 44.0139 91.5029 43.6154C91.4365 43.217 91.1709 42.9514 90.7725 42.885Z" fill="#F4601E"/>
<path d="M96.8152 41.6897C96.7488 41.6897 96.6824 41.6897 96.6824 41.6897L91.171 28.8076C91.171 28.7412 91.1046 28.7412 91.0381 28.7412C90.9717 28.7412 90.9717 28.8076 90.9717 28.874L96.4832 41.7561C96.284 41.8889 96.2176 42.0218 96.2176 42.221C96.2176 42.553 96.4832 42.8186 96.8152 42.8186C97.1472 42.8186 97.4128 42.553 97.4128 42.221C97.4128 41.9554 97.1472 41.6897 96.8152 41.6897Z" fill="#F4601E"/>
<path d="M105.248 19.5112C105.58 19.5112 105.846 19.2456 105.846 18.9135C105.846 18.5815 105.58 18.3159 105.248 18.3159C104.916 18.3159 104.651 18.5815 104.651 18.9135C104.651 18.9799 104.651 18.9799 104.651 19.0463L101.065 20.4408C100.999 20.4408 100.999 20.5072 100.999 20.5736L101.065 20.64L104.651 19.2456C104.85 19.3784 105.049 19.5112 105.248 19.5112Z" fill="#F4601E"/>
<path d="M102.725 9.41793C102.725 9.61714 102.791 9.74995 102.924 9.81635L99.3385 14.863C99.3385 14.9294 99.3385 14.9294 99.3385 14.9958C99.3385 14.9958 99.3385 14.9958 99.4049 14.9958C99.4049 14.9958 99.4713 14.9958 99.4713 14.9294L103.123 9.88275C103.19 9.94916 103.323 9.94916 103.389 9.94916C103.721 9.94916 103.987 9.68354 103.987 9.35153C103.987 9.01952 103.721 8.75391 103.389 8.75391C103.057 8.75391 102.725 9.08592 102.725 9.41793Z" fill="#F4601E"/>
<path d="M88.9796 11.4765L89.1788 14.5974C89.1788 14.6639 89.2452 14.6639 89.2452 14.6639C89.3116 14.6639 89.3116 14.5974 89.3116 14.5974L89.1124 11.4765C89.3116 11.4101 89.4444 11.2773 89.4444 11.0781C89.4444 10.8125 89.2452 10.6797 89.046 10.6797C88.8468 10.6797 88.6476 10.8789 88.6476 11.0781C88.5812 11.2773 88.7804 11.4765 88.9796 11.4765Z" fill="#F4601E"/>
<path d="M79.5504 10.3476C79.6168 10.3476 79.6832 10.3476 79.6832 10.3476L89.5108 26.1515L89.5772 26.2179C89.5772 26.2179 89.5772 26.2179 89.6436 26.2179C89.71 26.2179 89.71 26.1515 89.6436 26.0851L79.816 10.2148C79.8824 10.1484 79.9488 10.0156 79.9488 9.88279C79.9488 9.61718 79.7496 9.48438 79.5504 9.48438C79.3512 9.48438 79.152 9.68358 79.152 9.88279C79.152 10.082 79.2848 10.3476 79.5504 10.3476Z" fill="#F4601E"/>
<path d="M74.5038 14.6638C74.6366 14.6638 74.703 14.5974 74.7694 14.531L77.6912 16.9215H77.7576H77.824C77.824 16.8551 77.824 16.8551 77.824 16.7887L74.9022 14.3982C74.9022 14.3318 74.9686 14.2654 74.9686 14.199C74.9686 13.9333 74.7694 13.8005 74.5702 13.8005C74.371 13.8005 74.1718 13.9997 74.1718 14.199C74.1718 14.3982 74.3046 14.6638 74.5038 14.6638Z" fill="#F4601E"/>
<path d="M71.4494 21.0385C71.5822 21.0385 71.715 20.9721 71.7814 20.8393L85.4603 25.7531C85.5267 26.0187 85.726 26.2179 85.9916 26.2179C86.1244 26.2179 86.2572 26.1515 86.39 26.0851L88.8469 26.9484C88.9133 26.9484 88.9133 26.9484 88.9133 26.882V26.8156C88.9133 26.7492 88.9133 26.7492 88.8469 26.6828L86.5228 25.7531C86.5228 25.6867 86.5228 25.6867 86.5228 25.6203C86.5228 25.2883 86.2572 25.0227 85.9252 25.0227C85.6596 25.0227 85.3939 25.2219 85.3275 25.5539L71.715 20.7065V20.6401C71.715 20.3745 71.5158 20.2417 71.3166 20.2417C71.1174 20.2417 70.9182 20.4409 70.9182 20.6401C70.9182 20.8393 71.1838 21.0385 71.4494 21.0385ZM86.5892 25.8859L86.9212 26.0187L86.5892 25.8859Z" fill="#F4601E"/>
<path d="M83.5346 22.3665C83.269 22.3665 83.1362 22.5657 83.1362 22.7649C83.1362 22.9641 83.3354 23.1633 83.5346 23.1633C83.6674 23.1633 83.7338 23.0969 83.8666 23.0305L89.046 26.5498C89.046 26.5498 89.046 26.5498 89.1124 26.5498C89.1124 26.5498 89.1788 26.5498 89.1788 26.4834C89.1788 26.417 89.1788 26.417 89.1788 26.3506L83.9994 22.8313C83.9994 22.7649 84.0658 22.6985 84.0658 22.6321C83.9994 22.4993 83.8002 22.3665 83.5346 22.3665Z" fill="#F4601E"/>
<path d="M75.367 29.0732C75.5871 29.0732 75.7655 28.8948 75.7655 28.6748C75.7655 28.4547 75.5871 28.2764 75.367 28.2764C75.147 28.2764 74.9686 28.4547 74.9686 28.6748C74.9686 28.8948 75.147 29.0732 75.367 29.0732Z" fill="#F4601E"/>
<path d="M87.5852 38.9672C88.382 35.6471 89.2452 32.3934 90.0421 29.0732C90.0421 29.0068 90.0421 29.0068 89.9757 28.9404C89.9093 28.9404 89.9093 28.9404 89.8429 29.0068C89.046 32.327 88.1828 35.5807 87.386 38.9008C87.1204 38.9008 86.9875 39.1 86.9875 39.2993C86.9875 39.5649 87.1868 39.6977 87.386 39.6977C87.6516 39.6977 87.7844 39.4985 87.7844 39.2993C87.8508 39.2329 87.718 39.0336 87.5852 38.9672Z" fill="#F4601E"/>
<path d="M92.2334 38.9007L91.7685 35.0493C91.7685 34.9829 91.7021 34.9829 91.7021 34.9829C91.6357 34.9829 91.6357 35.0493 91.6357 35.0493L92.1006 38.9007C91.9014 38.9671 91.835 39.0999 91.835 39.2991C91.835 39.5647 92.0342 39.6975 92.2334 39.6975C92.4326 39.6975 92.6318 39.4983 92.6318 39.2991C92.6318 39.0999 92.499 38.9007 92.2334 38.9007Z" fill="#F4601E"/>
<path d="M97.0144 36.3111C96.948 36.3111 96.8816 36.3111 96.8152 36.3776L94.9559 33.8542C94.9559 33.7878 94.8895 33.7878 94.8231 33.8542C94.7567 33.8542 94.7567 33.9206 94.8231 33.9871L96.6824 36.5104C96.616 36.5768 96.5496 36.7096 96.5496 36.776C96.5496 37.0416 96.7488 37.1744 96.948 37.1744C97.1472 37.1744 97.3464 36.9752 97.3464 36.776C97.4128 36.5104 97.28 36.3111 97.0144 36.3111Z" fill="#F4601E"/>
<path d="M102.393 37.7719C102.327 37.7719 102.194 37.8383 102.127 37.8383L93.827 30.3348C93.8934 30.3348 93.9598 30.4012 94.0262 30.4012C94.3582 30.4012 94.6239 30.1356 94.6239 29.8036L100.002 32.8581C99.9361 32.9909 99.9361 33.0573 99.9361 33.1902C99.9361 33.655 100.334 34.0534 100.799 34.0534C101.264 34.0534 101.663 33.655 101.663 33.1902C101.663 32.7253 101.264 32.3269 100.799 32.3269C100.534 32.3269 100.268 32.4597 100.069 32.7253L94.5574 29.6044C94.491 29.4052 94.2918 29.206 94.0262 29.206C93.9598 29.206 93.9598 29.206 93.9598 29.206L91.8349 28.0107C91.7685 28.0107 91.7685 28.0107 91.7021 28.0107C91.7021 28.0771 91.7021 28.0771 91.7021 28.1435L93.6942 29.2724C93.495 29.4052 93.4286 29.538 93.4286 29.7372C93.4286 29.87 93.4286 29.9364 93.495 30.0028L91.6357 28.3428C91.5693 28.3428 91.5693 28.3428 91.5029 28.3428C91.5029 28.4092 91.5029 28.4092 91.5029 28.4756L101.928 37.9047C101.862 37.9712 101.862 38.0376 101.862 38.104C101.862 38.3696 102.061 38.5024 102.26 38.5024C102.459 38.5024 102.659 38.3032 102.659 38.104C102.659 37.9047 102.592 37.7719 102.393 37.7719Z" fill="#F4601E"/>
<path d="M89.8429 34.0534C90.0629 34.0534 90.2413 33.875 90.2413 33.655C90.2413 33.435 90.0629 33.2566 89.8429 33.2566C89.6228 33.2566 89.4445 33.435 89.4445 33.655C89.4445 33.875 89.6228 34.0534 89.8429 34.0534Z" fill="#F4601E"/>
<path d="M92.2998 23.4289C92.6298 23.4289 92.8974 23.1613 92.8974 22.8313C92.8974 22.5012 92.6298 22.2336 92.2998 22.2336C91.9697 22.2336 91.7021 22.5012 91.7021 22.8313C91.7021 23.1613 91.9697 23.4289 92.2998 23.4289Z" fill="#F4601E"/>
<path d="M90.5733 17.984L90.3077 26.0187C90.3077 26.0851 90.3741 26.0851 90.3741 26.0851C90.3741 26.0851 90.4405 26.0851 90.4405 26.0187C90.5069 26.0187 90.5069 26.0187 90.5069 25.9523L92.2998 7.75797C92.7646 7.75797 93.163 7.35955 93.163 6.89473C93.163 6.42991 92.7646 6.03149 92.2998 6.03149C91.835 6.03149 91.4366 6.42991 91.4366 6.89473C91.4366 7.29315 91.7686 7.69156 92.167 7.75797L90.4405 25.0227L90.6397 17.984C90.9053 17.9176 91.171 17.7184 91.171 17.3864C91.171 17.0543 90.9053 16.7887 90.5733 16.7887C90.2413 16.7887 89.9757 17.0543 89.9757 17.3864C90.1085 17.652 90.3077 17.9176 90.5733 17.984Z" fill="#F4601E"/>
<path d="M82.273 29.0732C82.603 29.0732 82.8706 28.8056 82.8706 28.4756C82.8706 28.1455 82.603 27.8779 82.273 27.8779C81.9429 27.8779 81.6754 28.1455 81.6754 28.4756C81.6754 28.8056 81.9429 29.0732 82.273 29.0732Z" fill="#F4601E"/>
<path d="M85.6595 32.9909C85.9896 32.9909 86.2571 32.7233 86.2571 32.3933C86.2571 32.0632 85.9896 31.7957 85.6595 31.7957C85.3295 31.7957 85.0619 32.0632 85.0619 32.3933C85.0619 32.7233 85.3295 32.9909 85.6595 32.9909Z" fill="#F4601E"/>
<path d="M84.1986 12.8046C84.265 12.8046 84.265 12.8046 84.3314 12.8046L86.6555 18.5817C86.5891 18.6481 86.5227 18.7809 86.5227 18.8473C86.5227 19.0465 86.7219 19.2457 86.9211 19.2457L89.6437 25.9524L89.7101 26.0188C89.7765 26.0188 89.7765 25.9524 89.7765 25.886L87.054 19.2457C87.2532 19.1793 87.3196 19.0465 87.3196 18.8473C87.3196 18.5817 87.1203 18.4489 86.9211 18.4489C86.8547 18.4489 86.7883 18.4489 86.7219 18.5153L84.3978 12.8046C84.597 12.6718 84.6635 12.539 84.6635 12.3398C84.6635 12.0078 84.3978 11.7422 84.0658 11.7422C83.7338 11.7422 83.4682 12.0078 83.4682 12.3398C83.6674 12.539 83.8666 12.8046 84.1986 12.8046Z" fill="#F4601E"/>
<path d="M107.838 24.9563C107.44 24.9563 107.174 25.2883 107.108 25.6203L96.8151 26.2179C96.7487 26.2179 96.7487 26.2844 96.7487 26.2844C96.7487 26.3508 96.8151 26.3508 96.8151 26.3508L107.108 25.6867C107.174 26.0187 107.44 26.2844 107.838 26.2844C108.236 26.2844 108.568 25.9523 108.568 25.5539C108.568 25.1555 108.236 24.9563 107.838 24.9563Z" fill="#F4601E"/>
<path d="M106.112 31.3973C105.846 31.3973 105.58 31.5965 105.448 31.8621L91.9678 27.7451C91.9014 27.7451 91.9014 27.7451 91.835 27.8115C91.835 27.8779 91.835 27.8779 91.9014 27.9443L105.381 32.0613C105.381 32.1277 105.381 32.1277 105.381 32.1941C105.381 32.5925 105.713 32.9245 106.112 32.9245C106.51 32.9245 106.842 32.5925 106.842 32.1941C106.842 31.7957 106.51 31.3973 106.112 31.3973Z" fill="#F4601E"/>
<path d="M89.378 26.2842C89.378 26.2842 89.4444 26.2842 89.378 26.2842C89.4444 26.2178 89.4444 26.1514 89.4444 26.1514L83.4682 19.1791C83.601 19.0463 83.6674 18.8471 83.6674 18.7143C83.6674 18.3159 83.3354 17.9839 82.937 17.9839C82.5386 17.9839 82.2065 18.3159 82.2065 18.7143C82.2065 19.1127 82.5386 19.4447 82.937 19.4447C83.0698 19.4447 83.2026 19.3783 83.3354 19.3119L89.378 26.2842C89.378 26.2842 89.3116 26.2842 89.378 26.2842Z" fill="#F4601E"/>
<path d="M88.9132 28.2764C88.9796 28.2764 88.9796 28.21 88.9132 28.1436C88.9132 28.0771 88.8468 28.0771 88.7804 28.1436L78.6872 33.7878C78.6208 33.7214 78.488 33.655 78.3552 33.655C78.0896 33.655 77.9568 33.8542 77.9568 34.0534C77.9568 34.2526 78.156 34.4518 78.3552 34.4518C78.5544 34.4518 78.7536 34.2526 78.7536 34.0534C78.7536 33.987 78.7536 33.987 78.7536 33.9206L88.9132 28.2764Z" fill="#F4601E"/>
<path d="M88.6476 27.413C88.714 27.413 88.714 27.3466 88.714 27.3466C88.714 27.2802 88.6476 27.2802 88.6476 27.2802H71.9141C71.8477 26.9482 71.5821 26.6162 71.1837 26.6162C70.7853 26.6162 70.4532 26.9482 70.4532 27.3466C70.4532 27.7451 70.7853 28.0771 71.1837 28.0771C71.5821 28.0771 71.8477 27.8115 71.9141 27.413H88.6476Z" fill="#F4601E"/>
<path d="M88.7804 28.0107C88.8468 28.0107 88.8468 27.9443 88.8468 27.8779C88.8468 27.8115 88.7804 27.8115 88.714 27.8115L73.5742 33.0573C73.4414 32.7253 73.1094 32.5261 72.7774 32.5261C72.3125 32.5261 71.9141 32.9245 71.9141 33.3894C71.9141 33.8542 72.3125 34.2526 72.7774 34.2526C73.2422 34.2526 73.6406 33.8542 73.6406 33.3894C73.6406 33.323 73.6406 33.2565 73.5742 33.1901L88.7804 28.0107Z" fill="#F4601E"/>
<path d="M81.609 16.9215C81.6754 16.8551 81.6754 16.7887 81.6754 16.7887L80.0817 14.9294C80.1481 14.863 80.1481 14.7966 80.1481 14.6638C80.1481 14.3982 79.9489 14.2654 79.7497 14.2654C79.5505 14.2654 79.3513 14.4646 79.3513 14.6638C79.3513 14.863 79.5505 15.0622 79.7497 15.0622C79.8161 15.0622 79.8825 15.0622 79.9489 14.9958L81.609 16.9215C81.5425 16.9215 81.5425 16.9215 81.609 16.9215Z" fill="#F4601E"/>
<path d="M91.835 27.4795C91.835 27.5459 91.835 27.5459 91.9014 27.5459L102.127 28.4755C102.194 28.8739 102.459 29.1396 102.858 29.1396C103.256 29.1396 103.588 28.8075 103.588 28.4091C103.588 28.0107 103.256 27.6787 102.858 27.6787C102.459 27.6787 102.194 27.9443 102.127 28.2763L91.9014 27.3467C91.9014 27.4131 91.9014 27.4795 91.835 27.4795Z" fill="#F4601E"/>
<path d="M91.7685 26.6163C91.7021 26.6163 91.7021 26.6827 91.7021 26.7491L91.7685 26.8155C91.7685 26.8155 91.7685 26.8155 91.835 26.8155L95.8855 24.8234C96.0183 24.9562 96.1511 25.0891 96.3503 25.0891C96.6824 25.0891 96.948 24.8234 96.948 24.4914C96.948 24.1594 96.6824 23.8938 96.3503 23.8938C96.0183 23.8938 95.7527 24.1594 95.7527 24.4914C95.7527 24.5578 95.7527 24.6242 95.8191 24.6906L91.7685 26.6163Z" fill="#F4601E"/>
<path d="M107.971 15.3278L108.037 15.3942C108.037 15.3942 108.037 15.3942 108.104 15.3942L111.092 13.6013C111.158 13.6677 111.291 13.7341 111.424 13.7341C111.689 13.7341 111.822 13.5349 111.822 13.3357C111.822 13.1365 111.623 12.9373 111.424 12.9373C111.225 12.9373 111.025 13.1365 111.025 13.3357C111.025 13.4021 111.025 13.4685 111.025 13.4685L108.037 15.2614C107.904 15.2614 107.904 15.2614 107.971 15.3278Z" fill="#F4601E"/>
<path d="M104.119 14.0661C104.119 14.0661 104.119 13.9997 104.119 14.0661L112.154 5.10173C112.287 5.23453 112.486 5.30093 112.685 5.30093C113.15 5.30093 113.549 4.90252 113.549 4.4377C113.549 3.97288 113.15 3.57446 112.685 3.57446C112.221 3.57446 111.822 3.97288 111.822 4.4377C111.822 4.63691 111.889 4.90252 112.088 5.03532L104.119 13.9997C103.987 13.9333 103.987 13.9997 104.119 14.0661C104.053 14.0661 104.053 14.0661 104.119 14.0661Z" fill="#F4601E"/>
<path d="M96.8152 14.0662C96.8152 14.0662 96.8816 14.0662 96.8816 13.9998L101.862 2.64493C101.928 2.64493 102.061 2.71133 102.127 2.71133C102.592 2.71133 102.991 2.31292 102.991 1.8481C102.991 1.38328 102.592 0.984863 102.127 0.984863C101.663 0.984863 101.264 1.38328 101.264 1.8481C101.264 2.18011 101.463 2.44572 101.729 2.57853L96.7488 13.9334C96.6824 13.9334 96.6824 13.9998 96.8152 14.0662C96.7488 14.0662 96.7488 14.0662 96.8152 14.0662Z" fill="#F4601E"/>
<path d="M99.8697 24.2922C99.8697 24.3586 99.9361 24.3586 99.9361 24.3586L103.256 23.6281C103.323 23.761 103.455 23.8938 103.655 23.8938C103.92 23.8938 104.053 23.6945 104.053 23.4953C104.053 23.2961 103.854 23.0969 103.655 23.0969C103.455 23.0969 103.256 23.2961 103.256 23.4953L99.9361 24.2258C99.8697 24.2258 99.8697 24.2922 99.8697 24.2922Z" fill="#F4601E"/>
<path d="M93.2958 21.7689C93.3622 21.7689 93.3622 21.7689 93.4286 21.7025L93.8271 20.7065H93.8935C94.1591 20.7065 94.2919 20.5073 94.2919 20.3081C94.2919 20.1089 94.0927 19.9097 93.8935 19.9097C93.6278 19.9097 93.495 20.1089 93.495 20.3081C93.495 20.4409 93.5614 20.5737 93.6943 20.6401L93.2958 21.6361C93.2294 21.7025 93.2294 21.7025 93.2958 21.7689Z" fill="#F4601E"/>
<path d="M86.1243 36.8423C86.0579 36.8423 86.0579 36.8423 85.9915 36.9087L84.1322 42.2873H84.0658C83.8002 42.2873 83.6674 42.4865 83.6674 42.6857C83.6674 42.8849 83.8666 43.0841 84.0658 43.0841C84.265 43.0841 84.4643 42.8849 84.4643 42.6857C84.4643 42.5529 84.3979 42.4201 84.265 42.2873L86.1243 36.9087C86.1907 36.9087 86.1243 36.8423 86.1243 36.8423Z" fill="#F4601E"/>
<path d="M33.9318 70.6416C29.35 70.6416 25.5651 66.4582 25.5651 61.2788C25.5651 56.0994 29.2836 51.916 33.9318 51.916C38.58 51.916 42.2986 56.0994 42.2986 61.2788C42.2986 61.478 42.1657 61.6108 41.9665 61.6108H26.2291C26.3619 66.259 29.7484 69.9776 33.9318 69.9776C36.5215 69.9776 38.8456 68.5167 40.3065 66.1262C40.3729 65.9934 40.5721 65.927 40.7713 65.9934C40.9041 66.0598 40.9705 66.259 40.9041 66.4582C39.3104 69.0479 36.7207 70.6416 33.9318 70.6416ZM26.2291 60.9468H41.6345C41.5017 56.2986 38.1152 52.58 33.9318 52.58C29.7484 52.58 26.3619 56.2986 26.2291 60.9468Z" fill="#3D3030"/>
<path d="M53.4542 70.6416C48.8724 70.6416 45.0875 66.4582 45.0875 61.2788C45.0875 56.0994 48.806 51.916 53.4542 51.916C56.7079 51.916 59.5633 53.9081 60.9577 57.1618C61.0241 57.361 60.9577 57.4938 60.7585 57.6266C60.5593 57.6931 60.4265 57.6266 60.2937 57.4274C58.9656 54.4393 56.3095 52.58 53.3878 52.58C49.138 52.58 45.6851 56.4978 45.6851 61.2788C45.6851 66.0598 49.2044 69.9776 53.4542 69.9776C56.0439 69.9776 58.4344 68.5167 59.8289 66.1262C59.8953 65.9934 60.0945 65.927 60.2937 65.9934C60.4265 66.0598 60.4929 66.259 60.4265 66.4582C58.8328 69.0479 56.2431 70.6416 53.4542 70.6416Z" fill="#3D3030"/>
<path d="M85.7923 70.6416C81.2106 70.6416 77.4256 66.4582 77.4256 61.2788C77.4256 56.0994 81.1441 51.916 85.7923 51.916C90.3741 51.916 94.1591 56.0994 94.1591 61.2788C94.0927 66.3918 90.3741 70.6416 85.7923 70.6416ZM85.7923 52.58C81.5426 52.58 78.0896 56.4978 78.0896 61.2788C78.0896 66.0598 81.5426 69.9776 85.7923 69.9776C90.0421 69.9776 93.4951 66.0598 93.4951 61.2788C93.4951 56.4978 90.0421 52.58 85.7923 52.58Z" fill="#3D3030"/>
<path d="M0.332014 70.5751C0.132805 70.5751 0 70.4423 0 70.2431V46.8029C0 46.6701 0.132805 46.5373 0.265611 46.4709C0.398416 46.4045 0.531222 46.4709 0.664027 46.6037L9.42919 61.9427C9.49559 62.0755 9.49559 62.2747 9.29638 62.4075C9.16358 62.4739 8.96437 62.4739 8.83156 62.2747L0.664027 48.0645V70.2431C0.664027 70.4423 0.531222 70.5751 0.332014 70.5751Z" fill="#3D3030"/>
<path d="M21.7801 70.5751C21.5809 70.5751 21.4481 70.4423 21.4481 70.2431V48.0645L11.3549 65.6613C11.2885 65.7941 11.0893 65.8605 10.8901 65.7941C10.7573 65.7277 10.6908 65.5285 10.7573 65.3293L21.4481 46.6701C21.5145 46.5373 21.6473 46.4709 21.8465 46.5373C21.9793 46.6037 22.1121 46.7365 22.1121 46.8693V70.3095C22.1121 70.4423 21.9129 70.5751 21.7801 70.5751Z" fill="#3D3030"/>
<path d="M68.5276 52.9785H63.149C62.9498 52.9785 62.817 52.8457 62.817 52.6465C62.817 52.4473 62.9498 52.3145 63.149 52.3145H68.5276C68.7268 52.3145 68.8596 52.4473 68.8596 52.6465C68.8596 52.8457 68.7268 52.9785 68.5276 52.9785Z" fill="#3D3030"/>
<path d="M77.6912 52.9785H72.3126C72.1134 52.9785 71.9806 52.8457 71.9806 52.6465C71.9806 52.4473 72.1134 52.3145 72.3126 52.3145H77.6912C77.8904 52.3145 78.0232 52.4473 78.0232 52.6465C78.0232 52.8457 77.8904 52.9785 77.6912 52.9785Z" fill="#3D3030"/>
<path d="M90.4405 25.7532C89.5109 25.7532 88.7141 26.4836 88.7141 27.4796C88.7141 27.7453 88.7805 28.0109 88.9133 28.2765C82.273 33.5223 76.6952 40.229 72.7774 47.5997C69.0588 54.572 66.6684 62.1419 65.8051 70.0438C65.8051 70.243 65.9379 70.3758 66.0707 70.4422C66.0707 70.4422 66.0707 70.4422 66.1371 70.4422C66.3363 70.4422 66.4691 70.3094 66.4691 70.1766C67.3324 62.3411 69.6565 54.904 73.375 47.9317C77.2928 40.561 82.8042 33.9871 89.3781 28.8077C89.6437 29.0733 90.0421 29.2061 90.4405 29.2061C91.3702 29.2061 92.167 28.4757 92.167 27.4796C92.167 26.4836 91.3702 25.7532 90.4405 25.7532ZM90.4405 28.4757C89.8429 28.4757 89.3781 28.0109 89.3781 27.4132C89.3781 26.8156 89.8429 26.3508 90.4405 26.3508C91.0382 26.3508 91.503 26.8156 91.503 27.4132C91.503 28.0109 90.9717 28.4757 90.4405 28.4757Z" fill="#3D3030"/>
<path d="M49.2708 79.6721H48.5404V76.0864H46.6147V79.6721H45.8843V75.4888H49.2708V79.6721Z" fill="#3D3030"/>
<path d="M50.2004 77.5473C50.2004 77.1488 50.2668 76.7504 50.4661 76.4184C50.6653 76.0864 50.8645 75.8208 51.1301 75.688C51.3957 75.5552 51.7277 75.4224 52.1261 75.4224C52.7237 75.4224 53.1886 75.6216 53.5206 76.02C53.8526 76.4184 54.0518 76.9496 54.0518 77.6137V77.6801C54.0518 78.0785 53.9854 78.4769 53.7862 78.8089C53.587 79.1409 53.3878 79.4065 53.1222 79.5393C52.8565 79.6721 52.5245 79.8049 52.1261 79.8049C51.5285 79.8049 51.0637 79.6057 50.7317 79.2073C50.3996 78.8089 50.2004 78.2777 50.2004 77.5473ZM50.9309 77.6137C50.9309 78.0785 51.0637 78.4769 51.2629 78.7425C51.4621 79.0081 51.7941 79.1409 52.1261 79.1409C52.5245 79.1409 52.7901 79.0081 52.9894 78.7425C53.1886 78.4769 53.3214 78.0785 53.3214 77.5473C53.3214 77.0824 53.1886 76.684 52.9894 76.4184C52.7901 76.1528 52.4581 76.02 52.1261 76.02C51.7941 76.02 51.4621 76.1528 51.2629 76.4184C51.0637 76.684 50.9309 77.0824 50.9309 77.6137Z" fill="#3D3030"/>
<path d="M54.6494 79.1409L54.915 78.8089C55.1806 78.4769 55.3798 77.8793 55.3798 77.1488L55.4462 75.4888H58.1687V79.1409H58.7V80.9338H57.9695V79.6721H55.0478V80.9338H54.3174V79.1409H54.6494ZM55.4462 79.1409H57.3719V76.1528H56.0439L55.9775 77.1488C56.0439 78.0121 55.8446 78.6761 55.4462 79.1409Z" fill="#3D3030"/>
<path d="M63.1489 79.2073C63.4146 79.2073 63.6138 79.1409 63.813 78.9417C64.0122 78.7425 64.0786 78.6097 64.145 78.3441H64.809C64.809 78.6097 64.7426 78.8089 64.5434 79.0081C64.3442 79.2073 64.2114 79.4065 63.9458 79.5393C63.6802 79.6721 63.4146 79.7385 63.1489 79.7385C62.5513 79.7385 62.1529 79.5393 61.7545 79.1409C61.3561 78.7425 61.2233 78.2113 61.2233 77.5472V77.4144C61.2233 77.016 61.2897 76.6176 61.4225 76.352C61.5553 76.0864 61.8209 75.7544 62.0865 75.6216C62.3521 75.4888 62.6841 75.356 63.0825 75.356C63.5474 75.356 63.9458 75.4888 64.2778 75.7544C64.6098 76.02 64.7426 76.4184 64.809 76.8832H64.145C64.145 76.6176 64.0122 76.4184 63.813 76.2192C63.6138 76.02 63.4146 75.9536 63.1489 75.9536C62.7505 75.9536 62.4849 76.0864 62.2857 76.352C62.0865 76.6176 61.9537 77.016 61.9537 77.4808V77.6137C61.9537 78.0785 62.0865 78.4769 62.2857 78.7425C62.4849 79.0081 62.7505 79.2073 63.1489 79.2073Z" fill="#3D3030"/>
<path d="M65.4067 77.5473C65.4067 77.1488 65.4731 76.7504 65.6723 76.4184C65.8715 76.0864 66.0707 75.8208 66.3363 75.688C66.6019 75.5552 66.9339 75.4224 67.3324 75.4224C67.93 75.4224 68.3948 75.6216 68.7268 76.02C69.0588 76.4184 69.258 76.9496 69.258 77.6137V77.6801C69.258 78.0785 69.1916 78.4769 68.9924 78.8089C68.7932 79.1409 68.594 79.4065 68.3284 79.5393C68.0628 79.6721 67.7308 79.8049 67.3324 79.8049C66.7347 79.8049 66.2699 79.6057 65.9379 79.2073C65.6059 78.8089 65.4067 78.2777 65.4067 77.5473ZM66.1371 77.6137C66.1371 78.0785 66.2699 78.4769 66.4691 78.7425C66.6683 79.0081 67.0003 79.1409 67.3324 79.1409C67.7308 79.1409 67.9964 79.0081 68.1956 78.7425C68.3948 78.4769 68.5276 78.0785 68.5276 77.5473C68.5276 77.0824 68.3948 76.684 68.1956 76.4184C67.9964 76.1528 67.6644 76.02 67.3324 76.02C67.0003 76.02 66.6683 76.1528 66.4691 76.4184C66.2699 76.684 66.1371 77.0824 66.1371 77.6137Z" fill="#3D3030"/>
<path d="M73.5742 75.4888V79.6721H72.8438V76.0864H71.3829L71.3165 77.6801C71.2501 78.4105 71.1173 78.9417 70.9845 79.2073C70.8517 79.4729 70.4533 79.6721 70.0549 79.6721H69.7228V79.0081H69.922C70.1877 79.0081 70.3205 78.8753 70.4533 78.6097C70.5861 78.3441 70.6525 77.9457 70.6525 77.2816L70.7189 75.4888H73.5742Z" fill="#3D3030"/>
<path d="M78.156 79.6721H77.4256V77.8793H75.4999V79.6721H74.7695V75.4888H75.4999V77.2816H77.4256V75.4888H78.156V79.6721Z" fill="#3D3030"/>
<path d="M79.3513 75.4888H80.0817V79.1409H82.0074V75.4888H82.7378V79.1409H83.269L83.2026 81.0002H82.5386V79.7385H79.3513V75.4888Z" fill="#3D3030"/>
<path d="M85.7923 79.8049C85.1947 79.8049 84.7299 79.6057 84.3979 79.2737C84.0658 78.9417 83.8666 78.4105 83.8666 77.7465V77.6137C83.8666 77.2152 83.933 76.8168 84.1322 76.4848C84.3315 76.1528 84.5307 75.8872 84.7963 75.688C85.0619 75.4888 85.3939 75.4224 85.7259 75.4224C86.2571 75.4224 86.722 75.6216 86.9876 75.9536C87.2532 76.2856 87.4524 76.8168 87.4524 77.4809V77.8129H84.5971C84.5971 78.2113 84.7299 78.5433 84.9291 78.8089C85.1283 79.0745 85.4603 79.2073 85.7923 79.2073C86.0579 79.2073 86.2571 79.1409 86.4563 79.0745C86.6555 79.0081 86.7884 78.8089 86.9212 78.6761L87.386 79.0081C86.9876 79.4729 86.4563 79.8049 85.7923 79.8049ZM85.6595 76.02C85.3939 76.02 85.1283 76.1528 84.9291 76.352C84.7299 76.5512 84.5971 76.8832 84.5307 77.2152H86.6556V77.1488C86.6556 76.7504 86.5227 76.4848 86.3899 76.2856C86.2571 76.0864 85.9915 76.02 85.6595 76.02Z" fill="#3D3030"/>
<path d="M90.6398 78.7425L92.1006 75.4888H93.0303V79.6721H92.2998V76.6176L90.9054 79.6721H90.3742L88.9797 76.5512V79.6721H88.3157V75.4888H89.2453L90.6398 78.7425Z" fill="#3D3030"/>
</svg>
